<!-- icon666.com - MILLIONS OF FREE VECTOR ICONS --><svg id="Expand" viewBox="0 0 16 16" xmlns="http://www.w3.org/2000/svg"><path d="m13.5.5h-11a2 2 0 0 0 0 4h11a2 2 0 0 0 0-4zm0 3h-11a1 1 0 0 1 0-2h11a1 1 0 0 1 0 2z" fill="#000000" style="fill: rgb(255, 255, 255);"></path><path d="m13.5 6h-11a2 2 0 0 0 0 4h11a2 2 0 0 0 0-4zm0 3h-11a1 1 0 0 1 0-2h11a1 1 0 0 1 0 2z" fill="#000000" style="fill: rgb(255, 255, 255);"></path><path d="m13.5 11.5h-11a2 2 0 0 0 0 4h11a2 2 0 0 0 0-4zm0 3h-11a1 1 0 0 1 0-2h11a1 1 0 0 1 0 2z" fill="#000000" style="fill: rgb(255, 255, 255);"></path></svg>